<?xml version="1.0" encoding="UTF-8" standalone="no"?>
<!DOCTYPE svg PUBLIC "-//W3C//DTD SVG 1.1//EN"
 "http://www.w3.org/Graphics/SVG/1.1/DTD/svg11.dtd">
<!-- Generated by graphviz version 12.2.1 (20241206.2353)
 -->
<!-- Pages: 1 -->
<svg width="1655pt" height="188pt"
 viewBox="0.00 0.00 1654.73 188.00" xmlns="http://www.w3.org/2000/svg" xmlns:xlink="http://www.w3.org/1999/xlink">
<g id="graph0" class="graph" transform="scale(1 1) rotate(0) translate(4 184)">
<polygon fill="white" stroke="none" points="-4,4 -4,-184 1650.73,-184 1650.73,4 -4,4"/>
<!-- main -->
<g id="node1" class="node">
<title>main</title>
<polygon fill="#87cefa" stroke="#00ff00" points="808.3,-180 754.3,-180 754.3,-144 808.3,-144 808.3,-180"/>
<text text-anchor="middle" x="781.3" y="-156.95" font-family="Times,serif" font-size="14.00">main</text>
</g>
<!-- os.ReadFile(inputfile) -->
<g id="node2" class="node">
<title>os.ReadFile(inputfile)</title>
<ellipse fill="none" stroke="black" cx="92.3" cy="-90" rx="92.3" ry="18"/>
<text text-anchor="middle" x="92.3" y="-84.95" font-family="Times,serif" font-size="14.00">os.ReadFile(inputfile)</text>
</g>
<!-- main&#45;&gt;os.ReadFile(inputfile) -->
<g id="edge1" class="edge">
<title>main&#45;&gt;os.ReadFile(inputfile)</title>
<path fill="none" stroke="black" d="M754.01,-159.27C670.2,-153.79 409.21,-135.57 194.3,-108 186.4,-106.99 178.18,-105.81 169.98,-104.57"/>
<polygon fill="black" stroke="black" points="170.77,-101.15 160.35,-103.07 169.69,-108.07 170.77,-101.15"/>
</g>
<!-- antlr.NewInputStream -->
<g id="node3" class="node">
<title>antlr.NewInputStream</title>
<ellipse fill="none" stroke="black" cx="296.3" cy="-90" rx="93.32" ry="18"/>
<text text-anchor="middle" x="296.3" y="-84.95" font-family="Times,serif" font-size="14.00">antlr.NewInputStream</text>
</g>
<!-- main&#45;&gt;antlr.NewInputStream -->
<g id="edge2" class="edge">
<title>main&#45;&gt;antlr.NewInputStream</title>
<path fill="none" stroke="black" d="M753.93,-157.45C691.17,-149.25 532.02,-128.16 399.3,-108 391.83,-106.87 384.07,-105.65 376.3,-104.41"/>
<polygon fill="black" stroke="black" points="376.88,-100.96 366.45,-102.83 375.77,-107.87 376.88,-100.96"/>
</g>
<!-- parser.NewGraphObjLexer -->
<g id="node4" class="node">
<title>parser.NewGraphObjLexer</title>
<ellipse fill="none" stroke="black" cx="519.3" cy="-90" rx="111.23" ry="18"/>
<text text-anchor="middle" x="519.3" y="-84.95" font-family="Times,serif" font-size="14.00">parser.NewGraphObjLexer</text>
</g>
<!-- main&#45;&gt;parser.NewGraphObjLexer -->
<g id="edge3" class="edge">
<title>main&#45;&gt;parser.NewGraphObjLexer</title>
<path fill="none" stroke="black" d="M754.24,-153.77C714.92,-143.27 640.72,-123.44 586.18,-108.87"/>
<polygon fill="black" stroke="black" points="587.24,-105.53 576.67,-106.33 585.43,-112.29 587.24,-105.53"/>
</g>
<!-- antlr.NewCommonTokenStream -->
<g id="node5" class="node">
<title>antlr.NewCommonTokenStream</title>
<ellipse fill="none" stroke="black" cx="781.3" cy="-90" rx="132.73" ry="18"/>
<text text-anchor="middle" x="781.3" y="-84.95" font-family="Times,serif" font-size="14.00">antlr.NewCommonTokenStream</text>
</g>
<!-- main&#45;&gt;antlr.NewCommonTokenStream -->
<g id="edge4" class="edge">
<title>main&#45;&gt;antlr.NewCommonTokenStream</title>
<path fill="none" stroke="black" d="M781.3,-143.7C781.3,-136.41 781.3,-127.73 781.3,-119.54"/>
<polygon fill="black" stroke="black" points="784.8,-119.62 781.3,-109.62 777.8,-119.62 784.8,-119.62"/>
</g>
<!-- parser.NewGraphObjParser -->
<g id="node6" class="node">
<title>parser.NewGraphObjParser</title>
<ellipse fill="none" stroke="black" cx="1044.3" cy="-90" rx="112.77" ry="18"/>
<text text-anchor="middle" x="1044.3" y="-84.95" font-family="Times,serif" font-size="14.00">parser.NewGraphObjParser</text>
</g>
<!-- main&#45;&gt;parser.NewGraphObjParser -->
<g id="edge5" class="edge">
<title>main&#45;&gt;parser.NewGraphObjParser</title>
<path fill="none" stroke="black" d="M808.45,-153.77C847.86,-143.28 922.18,-123.5 976.9,-108.94"/>
<polygon fill="black" stroke="black" points="977.68,-112.35 986.45,-106.4 975.88,-105.59 977.68,-112.35"/>
</g>
<!-- antlr.ParseTreeWalkerDefault.Walk() -->
<g id="node7" class="node">
<title>antlr.ParseTreeWalkerDefault.Walk()</title>
<ellipse fill="none" stroke="black" cx="1325.3" cy="-90" rx="150.13" ry="18"/>
<text text-anchor="middle" x="1325.3" y="-84.95" font-family="Times,serif" font-size="14.00">antlr.ParseTreeWalkerDefault.Walk()</text>
</g>
<!-- main&#45;&gt;antlr.ParseTreeWalkerDefault.Walk() -->
<g id="edge6" class="edge">
<title>main&#45;&gt;antlr.ParseTreeWalkerDefault.Walk()</title>
<path fill="none" stroke="black" d="M808.65,-157.48C881.92,-148.05 1085.8,-121.82 1214.45,-105.26"/>
<polygon fill="black" stroke="black" points="1214.53,-108.78 1224,-104.03 1213.64,-101.84 1214.53,-108.78"/>
</g>
<!-- render(outputfile) -->
<g id="node10" class="node">
<title>render(outputfile)</title>
<ellipse fill="none" stroke="black" cx="1570.3" cy="-90" rx="76.43" ry="18"/>
<text text-anchor="middle" x="1570.3" y="-84.95" font-family="Times,serif" font-size="14.00">render(outputfile)</text>
</g>
<!-- main&#45;&gt;render(outputfile) -->
<g id="edge9" class="edge">
<title>main&#45;&gt;render(outputfile)</title>
<path fill="none" stroke="black" d="M808.56,-160.12C902.7,-156.84 1222.64,-143.59 1484.3,-108 1490.77,-107.12 1497.49,-106.06 1504.19,-104.9"/>
<polygon fill="black" stroke="black" points="1504.7,-108.36 1513.92,-103.14 1503.45,-101.47 1504.7,-108.36"/>
</g>
<!-- EnterGraph -->
<g id="node8" class="node">
<title>EnterGraph</title>
<ellipse fill="none" stroke="black" cx="1264.3" cy="-18" rx="53.91" ry="18"/>
<text text-anchor="middle" x="1264.3" y="-12.95" font-family="Times,serif" font-size="14.00">EnterGraph</text>
</g>
<!-- antlr.ParseTreeWalkerDefault.Walk()&#45;&gt;EnterGraph -->
<g id="edge7" class="edge">
<title>antlr.ParseTreeWalkerDefault.Walk()&#45;&gt;EnterGraph</title>
<path fill="none" stroke="black" d="M1310.22,-71.7C1303.02,-63.44 1294.27,-53.39 1286.34,-44.3"/>
<polygon fill="black" stroke="black" points="1288.98,-42 1279.78,-36.76 1283.71,-46.6 1288.98,-42"/>
</g>
<!-- ExitGraph -->
<g id="node9" class="node">
<title>ExitGraph</title>
<ellipse fill="none" stroke="black" cx="1385.3" cy="-18" rx="49.3" ry="18"/>
<text text-anchor="middle" x="1385.3" y="-12.95" font-family="Times,serif" font-size="14.00">ExitGraph</text>
</g>
<!-- antlr.ParseTreeWalkerDefault.Walk()&#45;&gt;ExitGraph -->
<g id="edge8" class="edge">
<title>antlr.ParseTreeWalkerDefault.Walk()&#45;&gt;ExitGraph</title>
<path fill="none" stroke="black" d="M1340.13,-71.7C1347.21,-63.44 1355.82,-53.39 1363.61,-44.3"/>
<polygon fill="black" stroke="black" points="1366.21,-46.64 1370.06,-36.77 1360.9,-42.09 1366.21,-46.64"/>
</g>
</g>
</svg>
